<?xml version="1.0" encoding="UTF-8"?>
<svg id="Ebene_2" data-name="Ebene 2" xmlns="http://www.w3.org/2000/svg" viewBox="0 0 803.41 186">
  <defs>
    <style>
      .cls-1 {
        fill: #000;
        stroke-width: 0px;
      }
    </style>
  </defs>
  <g id="Ebene_8" data-name="Ebene 8">
    <g>
      <g>
        <path class="cls-1" d="M0,139.5V0h57.64c1.36,0,3.1.05,5.23.14,2.13.1,4.1.31,5.91.63,8.07,1.23,14.74,3.91,20,8.04,5.26,4.13,9.17,9.35,11.72,15.65,2.55,6.3,3.83,13.29,3.83,20.97s-1.29,14.58-3.88,20.88c-2.58,6.3-6.51,11.51-11.77,15.65-5.26,4.13-11.9,6.81-19.91,8.04-1.81.26-3.8.45-5.96.58-2.16.13-3.89.19-5.18.19H23.35v48.73H0ZM23.35,68.97h33.33c1.29,0,2.74-.06,4.36-.19,1.61-.13,3.1-.39,4.46-.77,3.88-.97,6.93-2.68,9.15-5.14,2.23-2.45,3.81-5.23,4.75-8.33.94-3.1,1.4-6.13,1.4-9.11s-.47-6.02-1.4-9.15c-.94-3.13-2.52-5.92-4.75-8.38-2.23-2.45-5.28-4.17-9.15-5.13-1.36-.39-2.84-.63-4.46-.73-1.61-.1-3.07-.15-4.36-.15H23.35v47.08Z"/>
        <path class="cls-1" d="M158.1,142.5c-7.75,0-14.14-1.29-19.18-3.88-5.04-2.58-9.04-5.88-12.01-9.88-2.97-4-5.17-8.27-6.59-12.79-1.42-4.52-2.34-8.8-2.76-12.84-.42-4.04-.63-7.31-.63-9.83v-58.42h23.64v50.38c0,3.23.23,6.86.68,10.9.45,4.04,1.5,7.91,3.15,11.63,1.65,3.71,4.1,6.77,7.36,9.15,3.26,2.39,7.67,3.59,13.22,3.59,2.97,0,5.91-.48,8.82-1.45,2.91-.97,5.54-2.63,7.9-4.99,2.36-2.36,4.25-5.6,5.67-9.74,1.42-4.13,2.13-9.36,2.13-15.69l13.85,5.91c0,8.91-1.73,16.99-5.18,24.22-3.46,7.23-8.54,13-15.26,17.29-6.72,4.29-14.98,6.44-24.8,6.44ZM192.29,139.5v-32.45h-2.81V34.87h23.44v104.63h-20.63Z"/>
        <path class="cls-1" d="M235.02,139.5V34.87h20.63v32.45h2.91v72.17h-23.54ZM298.08,139.5v-63.26c0-7.3-1.78-12.98-5.33-17.05-3.55-4.07-8.4-6.1-14.53-6.1s-10.71,2.03-14.29,6.1-5.38,9.36-5.38,15.89l-10.46-6.97c0-6.78,1.68-12.88,5.04-18.31,3.36-5.43,7.89-9.7,13.61-12.84,5.71-3.13,12.12-4.7,19.23-4.7,7.81,0,14.35,1.66,19.62,4.99,5.26,3.33,9.2,7.85,11.82,13.56,2.62,5.71,3.92,12.16,3.92,19.33v69.36h-23.25ZM360.86,139.5v-63.55c0-7.17-1.78-12.77-5.33-16.81-3.55-4.04-8.36-6.05-14.43-6.05-3.75,0-7.1.86-10.07,2.57-2.97,1.71-5.33,4.23-7.07,7.56-1.74,3.33-2.62,7.28-2.62,11.87l-10.37-6.1c-.07-7.23,1.57-13.61,4.89-19.13,3.33-5.52,7.83-9.83,13.51-12.93,5.68-3.1,12.01-4.65,18.99-4.65,11.56,0,20.42,3.47,26.59,10.41,6.17,6.94,9.25,16.07,9.25,27.37v69.46h-23.35Z"/>
        <path class="cls-1" d="M404.35,139.5V34.87h20.63v32.45h2.91v72.17h-23.54ZM467.42,139.5v-63.26c0-7.3-1.78-12.98-5.33-17.05-3.55-4.07-8.4-6.1-14.53-6.1s-10.71,2.03-14.29,6.1-5.38,9.36-5.38,15.89l-10.46-6.97c0-6.78,1.68-12.88,5.04-18.31,3.36-5.43,7.89-9.7,13.61-12.84,5.71-3.13,12.12-4.7,19.23-4.7,7.81,0,14.35,1.66,19.62,4.99,5.26,3.33,9.2,7.85,11.82,13.56,2.62,5.71,3.92,12.16,3.92,19.33v69.36h-23.25ZM530.19,139.5v-63.55c0-7.17-1.78-12.77-5.33-16.81-3.55-4.04-8.36-6.05-14.43-6.05-3.75,0-7.1.86-10.07,2.57-2.97,1.71-5.33,4.23-7.07,7.56-1.74,3.33-2.62,7.28-2.62,11.87l-10.37-6.1c-.07-7.23,1.57-13.61,4.89-19.13,3.33-5.52,7.83-9.83,13.51-12.93,5.68-3.1,12.01-4.65,18.99-4.65,11.56,0,20.42,3.47,26.59,10.41,6.17,6.94,9.25,16.07,9.25,27.37v69.46h-23.35Z"/>
        <path class="cls-1" d="M583.76,186l20.15-55.32.39,16.28-45.63-112.08h24.32l32.36,82.93h-6.2l31.48-82.93h23.35l-58.32,151.13h-21.89Z"/>
        <path class="cls-1" d="M713.96,142.41c-12.92,0-23.41-2.91-31.48-8.72-8.07-5.81-12.98-13.98-14.73-24.51l23.83-3.68c1.23,5.17,3.94,9.24,8.14,12.21,4.2,2.97,9.49,4.46,15.89,4.46,5.62,0,9.96-1.11,13.03-3.34,3.07-2.23,4.6-5.28,4.6-9.16,0-2.39-.57-4.31-1.7-5.76s-3.6-2.86-7.41-4.21c-3.81-1.36-9.66-3.07-17.53-5.13-8.78-2.33-15.76-4.83-20.92-7.51-5.17-2.68-8.88-5.86-11.14-9.54-2.26-3.68-3.39-8.14-3.39-13.37,0-6.52,1.71-12.21,5.13-17.05,3.42-4.84,8.2-8.57,14.34-11.19,6.13-2.62,13.37-3.92,21.7-3.92s15.36,1.26,21.65,3.78c6.3,2.52,11.38,6.1,15.26,10.75,3.88,4.65,6.26,10.11,7.17,16.37l-23.83,4.26c-.58-4.46-2.6-7.98-6.05-10.56-3.46-2.58-8.06-4.04-13.8-4.36-5.49-.32-9.91.5-13.27,2.47-3.36,1.97-5.04,4.73-5.04,8.28,0,2,.68,3.71,2.03,5.13,1.36,1.42,4.08,2.84,8.19,4.26,4.1,1.42,10.22,3.17,18.36,5.23,8.33,2.13,15,4.57,20,7.31,5,2.75,8.62,6.02,10.85,9.83,2.23,3.81,3.34,8.43,3.34,13.85,0,10.53-3.83,18.79-11.48,24.8-7.65,6.01-18.23,9.01-31.73,9.01Z"/>
      </g>
      <path class="cls-1" d="M780.3,0c3.88,0,7.67,1,11.37,2.98,3.7,1.99,6.58,4.84,8.64,8.55,2.06,3.71,3.1,7.57,3.1,11.6s-1.02,7.82-3.05,11.5c-2.03,3.68-4.89,6.53-8.55,8.56-3.67,2.03-7.51,3.05-11.51,3.05s-7.84-1.01-11.5-3.05c-3.67-2.03-6.52-4.89-8.56-8.56-2.04-3.68-3.06-7.51-3.06-11.5s1.04-7.89,3.11-11.6c2.07-3.71,4.96-6.55,8.66-8.55s7.49-2.98,11.37-2.98h0ZM780.3,3.83c-3.25,0-6.41.83-9.49,2.5-3.08,1.67-5.48,4.04-7.22,7.14s-2.6,6.32-2.6,9.67.85,6.52,2.56,9.58,4.09,5.44,7.16,7.14c3.06,1.71,6.26,2.56,9.59,2.56s6.52-.85,9.59-2.56c3.06-1.71,5.44-4.09,7.14-7.14,1.7-3.05,2.54-6.24,2.54-9.58s-.86-6.57-2.59-9.67c-1.73-3.1-4.13-5.47-7.22-7.14-3.08-1.67-6.24-2.5-9.47-2.5ZM770.16,35.91V11.03h8.55c2.92,0,5.03.23,6.34.69,1.31.46,2.34,1.26,3.13,2.41.78,1.14,1.16,2.36,1.16,3.65,0,1.82-.65,3.4-1.95,4.75-1.29,1.35-3.02,2.11-5.16,2.27.88.37,1.58.81,2.12,1.32,1,.98,2.23,2.63,3.68,4.93l3.03,4.87h-4.9l-2.21-3.92c-1.74-3.08-3.14-5.02-4.19-5.79-.74-.57-1.81-.86-3.22-.86h-2.36v10.57h-4.01,0ZM774.17,21.91h4.87c2.33,0,3.92-.35,4.77-1.04.85-.69,1.27-1.61,1.27-2.76,0-.74-.21-1.39-.62-1.98-.41-.58-.97-1.01-1.7-1.3-.72-.29-2.07-.43-4.03-.43h-4.57v7.51Z"/>
    </g>
  </g>
</svg>