<svg width="604" height="186" viewBox="0 0 604 186" fill="none" xmlns="http://www.w3.org/2000/svg">
<mask id="mask0_2005_144" style="mask-type:luminance" maskUnits="userSpaceOnUse" x="2" y="23" width="80" height="105">
<path d="M2.74658 23.4609H81.4133V128.003H2.74658V23.4609Z" fill="white"/>
</mask>
<g mask="url(#mask0_2005_144)">
<path d="M3.70996 127.263V23.6016H46.512C47.5173 23.6016 48.8141 23.638 50.3975 23.7109C51.9808 23.7786 53.4391 23.9401 54.7829 24.1745C60.7777 25.0911 65.7308 27.0807 69.6318 30.1484C73.5433 33.2214 76.4391 37.0964 78.335 41.7786C80.2308 46.4557 81.1787 51.6536 81.1787 57.362C81.1787 63.0703 80.2152 68.1953 78.3037 72.8776C76.3818 77.5547 73.4704 81.4349 69.5589 84.5026C65.6475 87.5755 60.7204 89.5703 54.7777 90.4766C53.4339 90.6693 51.96 90.8151 50.3506 90.9089C48.7412 91.0026 47.46 91.0547 46.5016 91.0547H21.0381V127.268H3.70996V127.263ZM21.0485 74.8568H45.7933C46.7516 74.8568 47.835 74.8151 49.0329 74.7109C50.2308 74.6172 51.335 74.4245 52.3402 74.138C55.2204 73.4141 57.486 72.1432 59.137 70.3203C60.7933 68.4974 61.9652 66.4297 62.6631 64.1276C63.361 61.8255 63.7048 59.5703 63.7048 57.362C63.7048 55.1536 63.361 52.888 62.6631 50.5599C61.9652 48.2318 60.7933 46.1536 59.137 44.3359C57.486 42.513 55.2204 41.2422 52.3402 40.5182C51.335 40.2318 50.2308 40.0495 49.0329 39.9766C47.835 39.9036 46.7568 39.8672 45.7933 39.8672H21.0485V74.8568Z" fill="black"/>
</g>
<path d="M178.226 127.263V49.5182H193.549V73.6328H195.71V127.263H178.226ZM225.054 127.263V80.2578C225.054 74.8307 223.736 70.612 221.095 67.5859C218.46 64.5599 214.861 63.0495 210.304 63.0495C205.746 63.0495 202.356 64.5599 199.694 67.5859C197.033 70.612 195.705 74.5443 195.705 79.3932L187.934 74.2109C187.934 69.1693 189.184 64.6328 191.674 60.6068C194.163 56.5755 197.538 53.3984 201.778 51.0703C206.022 48.7422 210.783 47.5807 216.059 47.5807C221.861 47.5807 226.715 48.8151 230.627 51.2891C234.538 53.763 237.46 57.1172 239.403 61.3672C241.345 65.612 242.314 70.3984 242.314 75.7266V127.268H225.054V127.263ZM271.668 127.263V80.0391C271.668 74.7109 270.351 70.5495 267.715 67.5495C265.08 64.5495 261.507 63.0495 256.996 63.0495C254.215 63.0495 251.72 63.6849 249.517 64.9557C247.314 66.2318 245.564 68.1016 244.267 70.5703C242.97 73.0443 242.325 75.9818 242.325 79.388L234.627 74.8516C234.575 69.4818 235.788 64.7422 238.262 60.638C240.731 56.5339 244.075 53.3307 248.299 51.0286C252.517 48.7266 257.22 47.5703 262.397 47.5703C270.981 47.5703 277.559 50.1484 282.142 55.3099C286.726 60.4714 289.007 67.2474 289.007 75.6432V127.263H271.668Z" fill="black"/>
<path d="M303.965 127.263V49.5182H319.293V73.6328H321.45V127.263H303.965ZM350.793 127.263V80.2578C350.793 74.8307 349.476 70.612 346.84 67.5859C344.205 64.5599 340.606 63.0495 336.049 63.0495C331.491 63.0495 328.101 64.5599 325.434 67.5859C322.773 70.612 321.444 74.5443 321.444 79.3932L313.679 74.2109C313.679 69.1693 314.924 64.6328 317.418 60.6068C319.908 56.5755 323.283 53.3984 327.523 51.0703C331.767 48.7422 336.523 47.5807 341.804 47.5807C347.601 47.5807 352.46 48.8151 356.372 51.2891C360.278 53.763 363.2 57.1172 365.148 61.3672C367.085 65.612 368.059 70.3984 368.059 75.7266V127.268H350.793V127.263ZM397.413 127.263V80.0391C397.413 74.7109 396.096 70.5495 393.46 67.5495C390.82 64.5495 387.247 63.0495 382.741 63.0495C379.96 63.0495 377.465 63.6849 375.262 64.9557C373.059 66.2318 371.309 68.1016 370.007 70.5703C368.715 73.0443 368.07 75.9818 368.07 79.388L360.372 74.8516C360.32 69.4818 361.533 64.7422 364.002 60.638C366.476 56.5339 369.82 53.3307 374.038 51.0286C378.262 48.7266 382.96 47.5703 388.142 47.5703C396.721 47.5703 403.304 50.1484 407.887 55.3099C412.465 60.4714 414.752 67.2474 414.752 75.6432V127.263H397.413Z" fill="black"/>
<mask id="mask1_2005_144" style="mask-type:luminance" maskUnits="userSpaceOnUse" x="417" y="49" width="81" height="113">
<path d="M417.413 49.3359H497.413V161.961H417.413V49.3359Z" fill="white"/>
</mask>
<g mask="url(#mask1_2005_144)">
<path d="M437.189 161.815L452.153 120.716L452.439 132.81L418.559 49.5234H436.611L460.637 111.138H456.038L479.418 49.5234H496.757L453.45 161.815H437.189Z" fill="black"/>
</g>
<path d="M533.872 129.419C524.278 129.419 516.492 127.258 510.497 122.935C504.502 118.617 500.856 112.549 499.564 104.721L517.257 101.992C518.169 105.826 520.179 108.852 523.299 111.06C526.413 113.268 530.351 114.367 535.096 114.367C539.268 114.367 542.497 113.544 544.773 111.888C547.049 110.232 548.189 107.966 548.189 105.086C548.189 103.31 547.768 101.878 546.934 100.799C546.096 99.7214 544.262 98.6797 541.429 97.6693C538.596 96.6641 534.262 95.3932 528.403 93.8516C521.882 92.1276 516.705 90.2682 512.867 88.2734C509.033 86.2839 506.273 83.9245 504.596 81.1849C502.913 78.4505 502.08 75.138 502.08 71.2526C502.08 66.4036 503.346 62.1849 505.893 58.5807C508.434 54.9818 511.986 52.2109 516.538 50.263C521.096 48.3255 526.465 47.3516 532.658 47.3516C538.846 47.3516 544.059 48.2891 548.731 50.1589C553.408 52.0286 557.184 54.6953 560.059 58.1484C562.939 61.6068 564.71 65.6641 565.382 70.3151L547.689 73.4818C547.257 70.1745 545.757 67.5547 543.195 65.638C540.627 63.7161 537.205 62.638 532.939 62.3984C528.867 62.1589 525.58 62.7682 523.085 64.2318C520.59 65.7005 519.346 67.7526 519.346 70.388C519.346 71.8776 519.851 73.1484 520.856 74.2057C521.861 75.263 523.887 76.3151 526.934 77.3776C529.981 78.4349 534.528 79.7266 540.57 81.263C546.757 82.8464 551.71 84.6589 555.424 86.7005C559.137 88.7422 561.825 91.1745 563.481 94.0078C565.132 96.8411 565.96 100.273 565.96 104.305C565.96 112.128 563.117 118.268 557.434 122.732C551.752 127.195 543.898 129.43 533.872 129.43V129.419Z" fill="black"/>
<path d="M115.767 129.719C109.965 129.719 105.059 128.646 101.043 126.505C97.0277 124.365 93.9912 121.51 91.9339 117.943C89.8818 114.375 88.8506 110.453 88.8506 106.167C88.8506 102.406 89.4912 99.0208 90.7829 96.0156C92.0693 93.0052 94.0537 90.401 96.7308 88.2083C99.4079 86.0156 102.877 84.2188 107.142 82.8281C110.366 81.8125 114.147 80.901 118.481 80.0833C122.819 79.2656 127.528 78.5 132.611 77.8073C137.689 77.1094 143.007 76.349 148.559 75.526L142.163 79.0677C142.215 73.6719 140.976 69.6979 138.444 67.1458C135.918 64.5937 131.653 63.3125 125.658 63.3125C122.038 63.3125 118.543 64.1302 115.174 65.7708C111.799 67.4115 109.45 70.2292 108.111 74.2292L91.7568 69.2448C93.736 62.6406 97.5225 57.3438 103.095 53.3438C108.668 49.3438 116.194 47.3438 125.663 47.3438C132.799 47.3438 139.08 48.474 144.507 50.7396C149.939 53.0052 153.965 56.7135 156.59 61.8698C158.028 64.6146 158.897 67.4219 159.189 70.2865C159.486 73.1563 159.637 76.276 159.637 79.6458V127.557H143.95V110.651L146.549 113.396C142.929 119.031 138.705 123.161 133.871 125.786C129.038 128.411 123.007 129.724 115.767 129.724V129.719ZM119.335 115.844C123.403 115.844 126.871 115.146 129.746 113.745C132.616 112.349 134.913 110.641 136.621 108.615C138.335 106.594 139.486 104.688 140.085 102.906C141.022 100.688 141.559 98.151 141.684 95.2813C141.809 92.4167 141.866 90.0885 141.866 88.3073L147.371 89.901C141.965 90.7188 137.335 91.4427 133.465 92.0677C129.601 92.6927 126.278 93.2865 123.502 93.8385C120.726 94.3906 118.272 95.0052 116.142 95.6771C114.064 96.401 112.304 97.2448 110.866 98.2031C109.424 99.1667 108.325 100.276 107.554 101.531C106.788 102.786 106.403 104.255 106.403 105.943C106.403 107.865 106.897 109.568 107.892 111.036C108.882 112.505 110.33 113.677 112.241 114.542C114.153 115.411 116.517 115.844 119.345 115.844H119.335Z" fill="black"/>
<mask id="mask2_2005_144" style="mask-type:luminance" maskUnits="userSpaceOnUse" x="565" y="23" width="37" height="36">
<path d="M565.414 23.4609H601.414V58.6693H565.414V23.4609Z" fill="white"/>
</mask>
<g mask="url(#mask2_2005_144)">
<path d="M583.132 23.6016C586.018 23.6016 588.836 24.3464 591.58 25.8203C594.325 27.2995 596.461 29.4193 597.997 32.1693C599.528 34.9245 600.299 37.7995 600.299 40.7943C600.299 43.7891 599.539 46.6016 598.034 49.3359C596.523 52.0703 594.403 54.1901 591.685 55.7005C588.961 57.2109 586.112 57.9661 583.138 57.9661C580.169 57.9661 577.315 57.2109 574.596 55.7005C571.872 54.1901 569.757 52.0703 568.237 49.3359C566.721 46.6016 565.966 43.7578 565.966 40.7943C565.966 37.8307 566.731 34.9349 568.273 32.1693C569.81 29.4193 571.95 27.2995 574.7 25.8203C577.445 24.3411 580.263 23.6016 583.138 23.6016H583.132ZM583.132 26.4505C580.716 26.4505 578.372 27.0651 576.091 28.3047C573.804 29.5443 572.023 31.3099 570.731 33.612C569.445 35.9141 568.799 38.3047 568.799 40.7943C568.799 43.2839 569.429 45.638 570.7 47.9141C571.966 50.1797 573.737 51.9505 576.013 53.2214C578.284 54.487 580.659 55.1224 583.132 55.1224C585.612 55.1224 587.976 54.487 590.257 53.2214C592.528 51.9505 594.299 50.1797 595.56 47.9141C596.82 45.6432 597.45 43.2734 597.45 40.7943C597.45 38.3151 596.815 35.9141 595.528 33.612C594.247 31.3099 592.461 29.5443 590.174 28.3047C587.882 27.0651 585.534 26.4505 583.138 26.4505H583.132ZM575.601 50.2891V31.7995H581.945C584.117 31.7995 585.679 31.9714 586.653 32.3151C587.627 32.6589 588.393 33.2526 588.981 34.1016C589.554 34.9505 589.846 35.8568 589.846 36.8099C589.846 38.1641 589.367 39.3411 588.398 40.3411C587.435 41.3464 586.153 41.9089 584.565 42.0286C585.216 42.2995 585.742 42.6276 586.138 43.0078C586.877 43.7318 587.789 44.9557 588.867 46.6745L591.117 50.2943H587.481L585.841 47.3776C584.554 45.0859 583.507 43.6536 582.726 43.0755C582.179 42.6484 581.382 42.4401 580.336 42.4401H578.58V50.2943H575.606L575.601 50.2891ZM578.58 39.888H582.2C583.929 39.888 585.112 39.6276 585.742 39.1068C586.367 38.5911 586.685 37.9089 586.685 37.0599C586.685 36.513 586.534 36.0286 586.226 35.5911C585.919 35.1589 585.507 34.8411 584.971 34.6224C584.435 34.4089 583.429 34.3099 581.976 34.3099H578.58V39.888Z" fill="black"/>
</g>
</svg>
