<svg width="16" height="16" viewBox="0 0 16 16" fill="none" xmlns="http://www.w3.org/2000/svg">
<path fill-rule="evenodd" clip-rule="evenodd" d="M1.05134 13.2696C0.931566 13.6289 1.02509 14.0251 1.29292 14.2929C1.56075 14.5607 1.95692 14.6542 2.31625 14.5345L5.0923 13.6091C5.38686 13.5109 5.65451 13.3455 5.87406 13.126L14 5C14.7811 4.21895 14.7811 2.95262 14 2.17157L13.4142 1.58579C12.6332 0.804739 11.3669 0.804736 10.5858 1.58579L2.45985 9.71175C2.2403 9.9313 2.07488 10.199 1.97669 10.4935L1.05134 13.2696ZM13.2929 2.87868C13.6834 3.2692 13.6834 3.90237 13.2929 4.29289L12.3536 5.23226L10.3536 3.2323L9.64648 3.93941L11.6464 5.93937L5.16695 12.4189C5.05718 12.5286 4.92335 12.6113 4.77607 12.6604L2.00003 13.5858L2.92538 10.8097C2.97447 10.6625 3.05718 10.5286 3.16695 10.4189L11.2929 2.29289C11.6834 1.90237 12.3166 1.90237 12.7071 2.29289L13.2929 2.87868Z" fill="#4E657F"/>
</svg>
