<svg width="16" height="16" viewBox="0 0 16 16" fill="none" xmlns="http://www.w3.org/2000/svg">
<path fill-rule="evenodd" clip-rule="evenodd" d="M4 15H12C12.5523 15 13 14.5523 13 14V5.73985C13 5.50114 12.9146 5.2703 12.7593 5.08906L9.55367 1.34921C9.36369 1.12756 9.08634 1 8.79441 1H4C3.44772 1 3 1.44772 3 2V14C3 14.5523 3.44772 15 4 15ZM12 16H4C2.89543 16 2 15.1046 2 14V2C2 0.895431 2.89543 0 4 0H8.79441C9.37826 0 9.93296 0.255125 10.3129 0.698417L13.5185 4.43827C13.8292 4.80075 14 5.26243 14 5.73985V14C14 15.1046 13.1046 16 12 16Z" fill="#4E657F"/>
<path fill-rule="evenodd" clip-rule="evenodd" d="M8.21384 6.79467C8.20221 6.77217 8.19071 6.74971 8.17935 6.72731C8.19366 6.75068 8.20494 6.77346 8.21384 6.79467ZM8.29968 6.95729C8.33807 6.8478 8.39245 6.68823 8.46838 6.45967C8.59767 6.07045 8.59655 5.61857 8.50473 5.2674C8.4597 5.09519 8.3792 4.89369 8.23224 4.7378C8.06379 4.55913 7.78841 4.43242 7.47367 4.53766C7.24726 4.61336 7.05613 4.75297 6.92988 4.95868C6.80899 5.15565 6.77241 5.37255 6.77302 5.56777C6.77419 5.94377 6.91455 6.36132 7.08006 6.74135C7.12487 6.84423 7.17374 6.94909 7.22561 7.05496C7.00964 7.8099 6.66238 8.87385 6.27121 9.7946C6.26256 9.81495 6.25391 9.8352 6.24525 9.85534C6.10459 9.91772 5.96723 9.97752 5.8329 10.033C5.04265 10.3593 4.59979 10.8851 4.51447 11.429C4.47355 11.6898 4.51668 11.9769 4.6901 12.2003C4.8806 12.4457 5.19684 12.5631 5.5228 12.4662C5.74449 12.4003 5.92649 12.2586 6.06861 12.1156C6.2152 11.9682 6.35153 11.7866 6.47739 11.5913C6.65835 11.3106 6.83427 10.9752 7.00071 10.6163C7.66455 10.3216 8.31366 10.0361 9.02524 9.87906C9.44185 10.287 9.85755 10.4922 10.1915 10.5433C10.4563 10.6029 10.7006 10.5239 10.8701 10.4321C11.053 10.3331 11.2144 10.1858 11.3267 10.0216C11.4254 9.87748 11.5563 9.61413 11.4748 9.31791C11.374 8.95183 11.0438 8.81584 10.7801 8.7883C10.2968 8.73782 9.84145 8.74872 9.41109 8.80191C9.33747 8.70251 9.26239 8.59051 9.18692 8.4644C9.11975 8.35215 9.04825 8.23442 8.97437 8.1128C8.75308 7.74846 8.51055 7.34916 8.29968 6.95729ZM7.89961 8.26863C7.79233 8.59855 7.67236 8.94747 7.54322 9.29643C7.80278 9.19581 8.07288 9.10147 8.35468 9.02065C8.34604 9.00651 8.33742 8.99225 8.32882 8.97788C8.26929 8.8784 8.20341 8.77007 8.13342 8.65498C8.05922 8.53298 7.9804 8.40338 7.89961 8.26863ZM10.6883 9.78467C10.6883 9.78468 10.6879 9.78459 10.687 9.78437ZM5.50092 11.6249C5.50087 11.6249 5.50067 11.6243 5.50046 11.6228Z" fill="#4E657F"/>
</svg>
